<svg width="16" height="16" viewBox="0 0 16 16" fill="currentColor" xmlns="http://www.w3.org/2000/svg">
<path fill-rule="evenodd" clip-rule="evenodd" d="M7.75094 6.18379e-05H7.67075C6.97796 4.02755e-05 6.40023 2.21988e-05 5.94161 0.0616821C5.45752 0.126765 5.02047 0.269933 4.66927 0.621139C4.31806 0.972344 4.1749 1.40939 4.10981 1.89348C4.04815 2.3521 4.04817 2.92981 4.04819 3.6226V3.68254C2.48969 3.73353 1.55382 3.91565 0.903381 4.56609C0 5.46947 0 6.92344 0 9.83139C0 12.7393 0 14.1933 0.903381 15.0967C1.80676 16.0001 3.26073 16.0001 6.16867 16.0001H9.25301C12.161 16.0001 13.6149 16.0001 14.5183 15.0967C15.4217 14.1933 15.4217 12.7393 15.4217 9.83139C15.4217 6.92344 15.4217 5.46947 14.5183 4.56609C13.8679 3.91565 12.932 3.73353 11.3735 3.68254V3.62262C11.3735 2.92983 11.3735 2.3521 11.3119 1.89348C11.2468 1.40939 11.1036 0.972344 10.7524 0.621139C10.4012 0.269933 9.96416 0.126765 9.48008 0.0616821C9.02146 2.21988e-05 8.44373 4.02755e-05 7.75094 6.18379e-05ZM10.2169 3.66417V3.66271C10.2169 2.91938 10.2156 2.42006 10.1656 2.04759C10.1177 1.69177 10.035 1.53948 9.93456 1.439C9.83408 1.33851 9.68179 1.25583 9.32596 1.20799C8.9535 1.15792 8.45418 1.15669 7.71084 1.15669C6.96751 1.15669 6.46819 1.15792 6.09572 1.20799C5.7399 1.25583 5.58761 1.33851 5.48713 1.439C5.38664 1.53948 5.30396 1.69177 5.25612 2.04759C5.20605 2.42006 5.20482 2.91938 5.20482 3.66271V3.66417C5.50711 3.66271 5.82791 3.66271 6.16867 3.66271H9.25301C9.59378 3.66271 9.91458 3.66271 10.2169 3.66417ZM11.5663 5.97596C11.5663 6.40182 11.221 6.74705 10.7952 6.74705C10.3693 6.74705 10.0241 6.40182 10.0241 5.97596C10.0241 5.55011 10.3693 5.20488 10.7952 5.20488C11.221 5.20488 11.5663 5.55011 11.5663 5.97596ZM4.6265 6.74705C5.05236 6.74705 5.39759 6.40182 5.39759 5.97596C5.39759 5.55011 5.05236 5.20488 4.6265 5.20488C4.20065 5.20488 3.85542 5.55011 3.85542 5.97596C3.85542 6.40182 4.20065 6.74705 4.6265 6.74705Z" fill="currentColor"/>
</svg>
