<svg width="20" height="24" viewBox="0 0 20 24" fill="currentIcon" xmlns="http://www.w3.org/2000/svg">
<path d="M4.00003 18C4.00003 18.55 4.45003 19 5.00003 19H6.00003V22.5C6.00003 23.33 6.67003 24 7.50003 24C8.33003 24 9.00003 23.33 9.00003 22.5V19H11V22.5C11 23.33 11.67 24 12.5 24C13.33 24 14 23.33 14 22.5V19H15C15.55 19 16 18.55 16 18V8H4.00003V18ZM1.50003 8C0.670031 8 3.05176e-05 8.67 3.05176e-05 9.5V16.5C3.05176e-05 17.33 0.670031 18 1.50003 18C2.33003 18 3.00003 17.33 3.00003 16.5V9.5C3.00003 8.67 2.33003 8 1.50003 8ZM18.5 8C17.67 8 17 8.67 17 9.5V16.5C17 17.33 17.67 18 18.5 18C19.33 18 20 17.33 20 16.5V9.5C20 8.67 19.33 8 18.5 8ZM13.53 2.16L14.83 0.86C15.03 0.66 15.03 0.35 14.83 0.15C14.63 -0.05 14.32 -0.05 14.12 0.15L12.64 1.63C11.8217 1.21559 10.9173 0.999759 10 1C9.04003 1 8.14003 1.23 7.34003 1.63L5.85003 0.15C5.65003 -0.05 5.34003 -0.05 5.14003 0.15C4.94003 0.35 4.94003 0.66 5.14003 0.86L6.45003 2.17C5.69059 2.72569 5.07293 3.45267 4.64723 4.29191C4.22153 5.13115 3.99979 6.05897 4.00003 7H16C16 5.01 15.03 3.25 13.53 2.16ZM8.00003 5H7.00003V4H8.00003V5ZM13 5H12V4H13V5Z" fill="currentIcon"/>
</svg>
