<svg width="17" height="16" viewBox="0 0 17 16" fill="currentColor" xmlns="http://www.w3.org/2000/svg">
<path fill-rule="evenodd" clip-rule="evenodd" d="M4.43373 2.31326H7.51807C8.97204 2.31326 9.69903 2.31326 10.1507 2.76495C10.6024 3.21664 10.6024 3.94363 10.6024 5.3976V14.8434H11.759H15.2289H16C16.3194 14.8434 16.5783 15.1023 16.5783 15.4217C16.5783 15.7411 16.3194 16 16 16H0.578313C0.25892 16 0 15.7411 0 15.4217C0 15.1023 0.25892 14.8434 0.578313 14.8434H1.3494V5.3976C1.3494 3.94363 1.3494 3.21664 1.80109 2.76495C2.25278 2.31326 2.97976 2.31326 4.43373 2.31326ZM3.08434 4.62652C3.08434 4.30712 3.34326 4.0482 3.66265 4.0482H8.28916C8.60855 4.0482 8.86747 4.30712 8.86747 4.62652C8.86747 4.94591 8.60855 5.20483 8.28916 5.20483H3.66265C3.34326 5.20483 3.08434 4.94591 3.08434 4.62652ZM3.08434 6.93977C3.08434 6.62038 3.34326 6.36146 3.66265 6.36146H8.28916C8.60855 6.36146 8.86747 6.62038 8.86747 6.93977C8.86747 7.25916 8.60855 7.51808 8.28916 7.51808H3.66265C3.34326 7.51808 3.08434 7.25916 3.08434 6.93977ZM3.08434 9.25302C3.08434 8.93363 3.34326 8.67471 3.66265 8.67471H8.28916C8.60855 8.67471 8.86747 8.93363 8.86747 9.25302C8.86747 9.57242 8.60855 9.83134 8.28916 9.83134H3.66265C3.34326 9.83134 3.08434 9.57242 3.08434 9.25302ZM5.9759 12.5301C6.2953 12.5301 6.55422 12.7891 6.55422 13.1084V14.8434H5.39759V13.1084C5.39759 12.7891 5.65651 12.5301 5.9759 12.5301Z" fill="currentColor"/>
<path d="M10.6024 0H12.1446C13.5985 0 14.3255 0 14.7772 0.451691C15.2289 0.903382 15.2289 1.63037 15.2289 3.08434V14.8434H10.6024V5.39759C10.6024 3.94362 10.6024 3.21663 10.1507 2.76494C9.70922 2.32343 9.00467 2.31348 7.61523 2.31326V1.15662C7.68023 0.858021 7.78871 0.632741 7.96976 0.451691C8.42145 0 9.14844 0 10.6024 0Z" fill="currentColor"/>
</svg>
