<svg width="24" height="22" viewBox="0 0 24 22" fill="currentIcon" xmlns="http://www.w3.org/2000/svg">
<path d="M22.2 1.163C21.6299 0.687364 20.9611 0.344649 20.242 0.159742C19.523 -0.0251646 18.7718 -0.0476213 18.043 0.0940027L16.279 0.526003C15.3584 0.694697 14.5262 1.18084 13.9271 1.89983C13.3279 2.61881 12.9999 3.52511 13 4.461V19.928C12.3369 20.025 11.6631 20.025 11 19.928V4.461C11.0033 3.53374 10.6828 2.63441 10.0939 1.91821C9.50493 1.202 8.68444 0.713853 7.774 0.538003L5.9 0.0820028C5.17916 -0.0499034 4.43813 -0.0217471 3.72938 0.164479C3.02062 0.350704 2.36146 0.690446 1.79857 1.15966C1.23567 1.62887 0.782786 2.21607 0.471982 2.87971C0.161178 3.54335 4.88124e-05 4.26719 0 5L0 15.793C5.74558e-05 16.9638 0.410977 18.0975 1.16113 18.9964C1.91129 19.8953 2.95311 20.5024 4.105 20.712L10.391 21.855C11.4549 22.0484 12.5451 22.0484 13.609 21.855L19.9 20.712C21.051 20.5014 22.0916 19.8938 22.8408 18.995C23.5899 18.0962 24.0002 16.9631 24 15.793V5C24.0005 4.26745 23.8394 3.5438 23.5283 2.8806C23.2171 2.21739 22.7636 1.63094 22.2 1.163Z" fill="currentIcon"/>
</svg>
