<svg width="38" height="38" viewBox="0 0 38 38" fill="none" xmlns="http://www.w3.org/2000/svg">
<path d="M19 37.2083C29.0562 37.2083 37.2083 29.0561 37.2083 19C37.2083 8.94377 29.0562 0.791626 19 0.791626C8.9438 0.791626 0.791656 8.94377 0.791656 19C0.791656 29.0561 8.9438 37.2083 19 37.2083Z" fill="#CBEAFB"/>
<path d="M0.791664 19C0.789328 21.5795 1.33657 24.13 2.39694 26.4816C3.45732 28.8332 5.00649 30.9319 6.94133 32.638L8.55 30.2258C8.55 30.2258 9.6995 29.8941 9.94729 29.4492C10.7231 28.0527 9.34562 25.6215 9.34562 25.6215C9.31718 25.0388 9.22426 24.461 9.06854 23.8988C8.86112 23.3818 7.41317 22.6733 7.41317 22.6733C7.41317 22.6733 6.01666 20.3972 6.01666 19C5.99227 18.4521 6.18504 17.9167 6.5531 17.5101C6.92115 17.1035 7.43476 16.8585 7.98237 16.8284C8.44434 16.7305 8.8808 16.5373 9.26385 16.2611C9.64689 15.9849 9.96811 15.6319 10.207 15.2245C10.207 15.2245 11.966 14.7582 12.3793 14.037C12.7925 13.3158 11.9146 10.7318 11.9146 10.7318C12.0772 10.0492 12.0712 9.33735 11.8972 8.65762C11.6086 8.02913 11.1591 7.48809 10.5941 7.08933C10.14 5.95392 9.44908 4.92835 8.56741 4.08099C6.16544 5.75749 4.20407 7.98949 2.85023 10.587C1.49639 13.1846 0.790168 16.0708 0.791664 19Z" fill="#387DE5"/>
<path d="M19 0.791637C18.5092 0.791637 18.0247 0.81697 17.5441 0.85497C17.3858 1.34501 16.5696 2.60297 16.7754 3.1706C16.9812 3.73822 18.6714 4.26626 18.6714 4.26626C18.6714 4.26626 18.2234 6.01664 19 6.63651C19.7766 7.25639 21.0179 6.42989 21.4827 6.58505C21.9474 6.74022 21.8444 9.7913 21.8444 9.7913C21.8444 9.7913 23.3447 11.4467 24.8195 11.6541C26.2944 11.8615 28.5404 9.35826 28.5404 9.35826C30.1913 8.98275 31.8069 8.46627 33.3695 7.81451C31.6687 5.6254 29.4896 3.85444 26.9989 2.63718C24.5083 1.41992 21.7722 0.78863 19 0.791637Z" fill="#387DE5"/>
<path d="M32.3459 20.1875C32.76 21.1707 31.5685 23.6803 30.5868 24.1704C29.5819 24.6266 28.706 25.3251 28.0377 26.2034C27.6751 26.7726 27.1993 29.1199 26.0102 29.5854C24.8211 30.0509 22.0004 32.7061 20.5002 32.2921C19 31.878 19 28.3108 20.0347 26.7069C20.6522 25.7497 19.931 23.655 19.8764 22.9314C19.8218 22.2078 17.6542 20.862 17.6542 20.1384C17.6542 19 20.1368 15.9996 20.1368 15.9996C20.1368 15.9996 22.1714 15.3274 22.7921 15.4826C23.4196 15.7108 24.021 16.0054 24.586 16.3614C25.68 16.443 26.7583 16.669 27.793 17.0335L28.9805 18.1196C28.9805 18.1196 31.9319 19.2066 32.3459 20.1875Z" fill="#387DE5"/>
</svg>
