<svg width="18" height="18" viewBox="0 0 18 18" fill="currentColor" xmlns="http://www.w3.org/2000/svg">
<path d="M0.000244141 14.2499C0.00143502 15.2441 0.3969 16.1972 1.09989 16.9002C1.80289 17.6032 2.75601 17.9987 3.75019 17.9999H14.2501C15.2442 17.9987 16.1974 17.6032 16.9004 16.9002C17.6033 16.1972 17.9988 15.2441 18 14.2499V7.50002H0.000244141V14.2499ZM12.7501 10.875C13.0484 10.875 13.3346 10.9935 13.5456 11.2045C13.7565 11.4155 13.8751 11.7016 13.8751 12C13.8751 12.2983 13.7565 12.5845 13.5456 12.7954C13.3346 13.0064 13.0484 13.1249 12.7501 13.1249C12.4517 13.1249 12.1656 13.0064 11.9546 12.7954C11.7436 12.5845 11.6251 12.2983 11.6251 12C11.6251 11.7016 11.7436 11.4155 11.9546 11.2045C12.1656 10.9935 12.4517 10.875 12.7501 10.875ZM9.00012 10.875C9.29849 10.875 9.58463 10.9935 9.79561 11.2045C10.0066 11.4155 10.1251 11.7016 10.1251 12C10.1251 12.2983 10.0066 12.5845 9.79561 12.7954C9.58463 13.0064 9.29849 13.1249 9.00012 13.1249C8.70176 13.1249 8.41561 13.0064 8.20464 12.7954C7.99366 12.5845 7.87514 12.2983 7.87514 12C7.87514 11.7016 7.99366 11.4155 8.20464 11.2045C8.41561 10.9935 8.70176 10.875 9.00012 10.875ZM5.25017 10.875C5.54854 10.875 5.83468 10.9935 6.04566 11.2045C6.25663 11.4155 6.37516 11.7016 6.37516 12C6.37516 12.2983 6.25663 12.5845 6.04566 12.7954C5.83468 13.0064 5.54854 13.1249 5.25017 13.1249C4.95181 13.1249 4.66566 13.0064 4.45469 12.7954C4.24371 12.5845 4.12519 12.2983 4.12519 12C4.12519 11.7016 4.24371 11.4155 4.45469 11.2045C4.66566 10.9935 4.95181 10.875 5.25017 10.875Z" fill="currentColor"/>
<path d="M14.2501 1.5001H13.5001V0.750112C13.5001 0.551202 13.421 0.360439 13.2804 0.219789C13.1397 0.0791386 12.949 0.00012207 12.7501 0.00012207C12.5512 0.00012207 12.3604 0.0791386 12.2197 0.219789C12.0791 0.360439 12.0001 0.551202 12.0001 0.750112V1.5001H6.00016V0.750112C6.00016 0.551202 5.92115 0.360439 5.7805 0.219789C5.63985 0.0791386 5.44908 0.00012207 5.25017 0.00012207C5.05126 0.00012207 4.8605 0.0791386 4.71985 0.219789C4.5792 0.360439 4.50018 0.551202 4.50018 0.750112V1.5001H3.75019C2.75601 1.50129 1.80289 1.89676 1.09989 2.59975C0.3969 3.30275 0.00143502 4.25587 0.000244141 5.25005L0.000244141 6.00004H18V5.25005C17.9988 4.25587 17.6033 3.30275 16.9004 2.59975C16.1974 1.89676 15.2442 1.50129 14.2501 1.5001Z" fill="currentColor"/>
</svg>
