<svg width="20" height="20" viewBox="0 0 20 20" fill="currentIcon" xmlns="http://www.w3.org/2000/svg">
<path d="M5.64862 18.91C5.61862 18.91 5.57887 18.9295 5.54887 18.9295C3.60438 17.9602 2.02824 16.3843 1.05862 14.44C1.05862 14.41 1.07887 14.3695 1.07887 14.3395C2.29837 14.6995 3.55837 14.9695 4.80862 15.1795C5.02837 16.4395 5.28862 17.6897 5.64862 18.91ZM18.9386 14.4497C17.9486 16.4395 16.2986 18.0497 14.2886 19.0195C14.6689 17.7497 14.9891 16.4695 15.1991 15.1795C16.4591 14.9695 17.6996 14.6995 18.9191 14.3395C18.9094 14.38 18.9394 14.4197 18.9394 14.4497H18.9386ZM19.0189 5.71074C17.7657 5.32847 16.49 5.02438 15.1991 4.80024C14.9859 3.50722 14.6819 2.23081 14.2894 0.980494C16.3597 1.97106 18.0286 3.64029 19.0189 5.71074ZM5.65087 1.08849C5.29087 2.30874 5.03062 3.54849 4.82062 4.80849C3.53062 5.00874 2.25037 5.32824 0.980616 5.70849C1.95037 3.69849 3.56062 2.04849 5.55037 1.05849C5.58037 1.05849 5.62087 1.08849 5.65087 1.08849ZM13.4921 4.59024C11.1726 4.33023 8.83135 4.33023 6.51187 4.59024C6.76162 3.21999 7.08187 1.84974 7.53187 0.529744C7.55212 0.450244 7.54162 0.390244 7.55212 0.309994C8.34187 0.120244 9.15187 0.000244141 10.0016 0.000244141C10.8416 0.000244141 11.6621 0.120244 12.4421 0.309994C12.4519 0.390244 12.4519 0.450244 12.4721 0.529744C12.9221 1.86024 13.2416 3.21999 13.4921 4.59024ZM4.58962 13.492C3.20962 13.2415 1.84987 12.922 0.529866 12.472C0.450366 12.4517 0.390366 12.4615 0.310116 12.4517C0.120366 11.662 0.000366211 10.852 0.000366211 10.0015C0.000366211 9.1615 0.120366 8.34174 0.310116 7.56174C0.390366 7.55199 0.450366 7.55199 0.529866 7.53174C1.85775 7.09688 3.21461 6.75604 4.59037 6.51174C4.34034 8.83178 4.33959 11.172 4.58962 13.492ZM20.0006 10.0015C20.0006 10.852 19.8806 11.662 19.6901 12.4517C19.6106 12.4615 19.5506 12.4517 19.4704 12.472C18.1424 12.9057 16.7859 13.2465 15.4106 13.492C15.6706 11.1725 15.6706 8.83123 15.4106 6.51174C16.7801 6.76149 18.1504 7.08174 19.4704 7.53174C19.5506 7.55199 19.6106 7.56174 19.6901 7.56174C19.8806 8.35149 20.0006 9.1615 20.0006 10.0015ZM13.4921 15.4105C13.2416 16.7905 12.9221 18.1502 12.4721 19.4702C12.4519 19.5505 12.4519 19.6105 12.4421 19.69C11.6621 19.8805 10.8416 20.0005 10.0016 20.0005C9.15187 20.0005 8.34187 19.8805 7.55212 19.69C7.54162 19.6105 7.55212 19.5505 7.53187 19.4702C7.09704 18.1426 6.7562 16.786 6.51187 15.4105C7.67212 15.5402 8.83162 15.6302 10.0016 15.6302C11.1716 15.6302 12.3416 15.5402 13.4921 15.4105ZM13.7636 13.7635C11.2624 14.0785 8.73862 14.0785 6.23662 13.7635C5.92162 11.2622 5.92162 8.73849 6.23662 6.23649C8.73787 5.92149 11.2616 5.92149 13.7636 6.23649C14.0786 8.73774 14.0786 11.2615 13.7636 13.7635Z" fill="currentIcon"/>
</svg>
