<svg width="22" height="21" viewBox="0 0 22 21" fill="currentColor" xmlns="http://www.w3.org/2000/svg">
<path d="M20.9997 19.249H20V7.97875C20 7.3585 19.7202 6.77875 19.2297 6.3985L17.9997 5.4385L17.9802 2.989C17.9802 2.4385 17.5302 1.999 16.9797 1.999H13.5702L12.23 0.95875C11.51 0.38875 10.49 0.38875 9.76999 0.95875L2.77024 6.3985C2.5304 6.58403 2.33627 6.82206 2.20275 7.09431C2.06923 7.36655 1.99987 7.66577 1.99999 7.969L1.94974 19.249H1.00024C0.589994 19.249 0.250244 19.5888 0.250244 19.999C0.250244 20.4093 0.589994 20.749 1.00024 20.749H20.9997C21.41 20.749 21.7497 20.4085 21.7497 19.999C21.7497 19.5895 21.41 19.249 20.9997 19.249ZM5.50024 10.7485V9.2485C5.50024 8.69875 5.95024 8.24875 6.49999 8.24875H8.50024C9.04999 8.24875 9.49999 8.69875 9.49999 9.2485V10.7485C9.49999 11.299 9.04999 11.749 8.50024 11.749H6.49999C5.95024 11.749 5.50024 11.299 5.50024 10.7485ZM13.4997 19.249H8.50024V16.4988C8.50024 15.6685 9.16999 14.9988 10.0002 14.9988H11.9997C12.83 14.9988 13.4997 15.6685 13.4997 16.4988V19.249ZM16.4997 10.7485C16.4997 11.299 16.0497 11.749 15.5 11.749H13.4997C12.95 11.749 12.5 11.299 12.5 10.7485V9.2485C12.5 8.69875 12.95 8.24875 13.4997 8.24875H15.5C16.0497 8.24875 16.4997 8.69875 16.4997 9.2485V10.7485Z" fill="currentColor"/>
</svg>
