<svg width="17" height="20" viewBox="0 0 17 20" fill="currentColor" xmlns="http://www.w3.org/2000/svg">
<path fill-rule="evenodd" clip-rule="evenodd" d="M0.711987 3.51721C1.01065 1.56379 2.61577 0 4.65209 0C5.87113 0 6.9486 0.570733 7.6704 1.44368C7.90532 1.72779 7.85822 2.14276 7.56521 2.37054C7.2722 2.59831 6.84423 2.55265 6.60931 2.26854C6.11782 1.67412 5.41599 1.31868 4.65209 1.31868C3.45004 1.31868 2.36729 2.22488 2.09029 3.52175C2.22449 3.53827 2.35493 3.59368 2.46244 3.68882C2.73983 3.9343 2.75946 4.35134 2.50629 4.6203L1.84427 5.32359C1.71543 5.46047 1.53314 5.53845 1.34202 5.53845C1.1509 5.53845 0.968604 5.46047 0.839764 5.32359L0.177749 4.6203C-0.0754235 4.35134 -0.0557936 3.9343 0.221594 3.68882C0.360549 3.56585 0.537826 3.50926 0.711987 3.51721ZM8.17799 2.81318C8.36911 2.81318 8.5514 2.89117 8.68024 3.02804L9.34226 3.73133C9.59543 4.00029 9.5758 4.41733 9.29841 4.66281C9.15946 4.78578 8.98218 4.84238 8.80802 4.83443C8.50936 6.78784 6.90423 8.35163 4.86792 8.35163C3.73411 8.35163 2.72135 7.85743 2.00484 7.08516C1.75367 6.81444 1.77639 6.39755 2.05559 6.15401C2.33479 5.91047 2.76475 5.9325 3.01592 6.20322C3.5 6.72498 4.1563 7.03295 4.86792 7.03295C6.06996 7.03295 7.15271 6.12676 7.42972 4.82989C7.29552 4.81336 7.16507 4.75795 7.05756 4.66281C6.78018 4.41733 6.76054 4.00029 7.01372 3.73133L7.67573 3.02804C7.80457 2.89117 7.98687 2.81318 8.17799 2.81318Z" fill="currentColor"/>
<path fill-rule="evenodd" clip-rule="evenodd" d="M17 9.45057V12.967C17 16.2824 17 17.9401 15.9378 18.97C14.8755 20 13.1659 20 9.74667 20C6.32741 20 4.61779 20 3.55556 18.97C2.49334 17.9401 2.49334 16.2824 2.49334 12.967V11.4608C2.49334 11.2273 2.49334 11.1106 2.51607 11.014C2.59357 10.6848 2.85871 10.4277 3.19825 10.3525C3.29785 10.3305 3.41839 10.3305 3.65947 10.3305C5.10323 10.3305 5.82511 10.3305 6.42161 10.1988C8.46068 9.74837 10.053 8.20447 10.5175 6.22736C10.6533 5.64898 10.6533 4.94985 10.6533 3.55157C10.6533 3.31962 10.6533 3.20364 10.6766 3.10605C10.7551 2.77611 11.0322 2.51283 11.374 2.44337C11.4751 2.42282 11.5909 2.4251 11.8226 2.42965C13.9085 2.47065 15.1166 2.65133 15.9378 3.44757C17 4.47752 17 6.13521 17 9.45057ZM7.02667 16.7033C6.65111 16.7033 6.34667 16.9985 6.34667 17.3626C6.34667 17.7267 6.65111 18.0219 7.02667 18.0219H12.4667C12.8422 18.0219 13.1467 17.7267 13.1467 17.3626C13.1467 16.9985 12.8422 16.7033 12.4667 16.7033H7.02667Z" fill="currentColor"/>
</svg>
