<svg width="18" height="20" viewBox="0 0 18 20" fill="currentColor" xmlns="http://www.w3.org/2000/svg">
<path fill-rule="evenodd" clip-rule="evenodd" d="M8.41511 0.395136C8.79624 0.277997 9.20375 0.277997 9.58488 0.395136L12.5706 1.3128C14.1283 1.79155 15.6075 2.49541 16.9616 3.40207C18.0147 4.10725 17.5155 5.75 16.2481 5.75H1.75191C0.484457 5.75 -0.0147414 4.10726 1.03841 3.40207C2.39244 2.49541 3.87174 1.79155 5.42938 1.31281L8.41511 0.395136ZM9.1442 1.82894C9.05023 1.80006 8.94976 1.80006 8.85579 1.82894L5.87006 2.74661C4.68925 3.10953 3.55791 3.61457 2.50069 4.25H15.4993C14.4421 3.61457 13.3107 3.10953 12.1299 2.74661L9.1442 1.82894Z" fill="currentColor"/>
<path d="M1.25 19C1.25 18.5858 1.58579 18.25 2 18.25H16C16.4142 18.25 16.75 18.5858 16.75 19C16.75 19.4142 16.4142 19.75 16 19.75H2C1.58579 19.75 1.25 19.4142 1.25 19Z" fill="currentColor"/>
<path d="M3.25 15C3.25 15.4142 3.58579 15.75 4 15.75C4.41421 15.75 4.75 15.4142 4.75 15L4.75 9C4.75 8.58579 4.41421 8.25 4 8.25C3.58579 8.25 3.25 8.58579 3.25 9L3.25 15Z" fill="currentColor"/>
<path d="M9 15.75C8.58579 15.75 8.25 15.4142 8.25 15L8.25 9C8.25 8.58579 8.58579 8.25 9 8.25C9.41421 8.25 9.75 8.58579 9.75 9V15C9.75 15.4142 9.41421 15.75 9 15.75Z" fill="currentColor"/>
<path d="M13.25 15C13.25 15.4142 13.5858 15.75 14 15.75C14.4142 15.75 14.75 15.4142 14.75 15V9C14.75 8.58579 14.4142 8.25 14 8.25C13.5858 8.25 13.25 8.58579 13.25 9V15Z" fill="currentColor"/>
</svg>
