<svg width="19" height="20" viewBox="0 0 19 20" fill="currentColor" xmlns="http://www.w3.org/2000/svg">
<path d="M1.33919 15C1.67017 15.5745 2.21581 15.994 2.85609 16.1663C3.49637 16.3385 4.17884 16.2493 4.75336 15.9183L4.75586 15.9167L5.1267 15.7025C5.82673 16.3014 6.63133 16.7658 7.50003 17.0725V17.5C7.50003 18.163 7.76342 18.7989 8.23226 19.2678C8.7011 19.7366 9.33699 20 10 20C10.6631 20 11.299 19.7366 11.7678 19.2678C12.2366 18.7989 12.5 18.163 12.5 17.5V17.0725C13.3689 16.7653 14.1735 16.3003 14.8734 15.7008L15.2459 15.9158C15.8198 16.2356 16.4965 16.3168 17.1298 16.1418C17.7631 15.9669 18.3021 15.5498 18.6305 14.9807C18.9588 14.4116 19.05 13.7361 18.8845 13.1003C18.719 12.4645 18.31 11.9193 17.7459 11.5825L17.3759 11.3692C17.5425 10.4625 17.5425 9.53333 17.3759 8.6275L17.7459 8.41417C18.31 8.07739 18.719 7.53219 18.8845 6.89636C19.05 6.26053 18.9588 5.58511 18.6305 5.016C18.3021 4.4469 17.7631 4.02981 17.1298 3.85483C16.4965 3.67985 15.8198 3.76103 15.2459 4.08083L14.875 4.295C14.1743 3.69684 13.3691 3.23323 12.5 2.9275V2.5C12.5 1.83696 12.2366 1.20107 11.7678 0.732233C11.299 0.263392 10.6631 0 10 0C9.33699 0 8.7011 0.263392 8.23226 0.732233C7.76342 1.20107 7.50003 1.83696 7.50003 2.5V2.9275C6.63118 3.23462 5.82656 3.69965 5.1267 4.29917L4.7542 4.08333C4.46942 3.91333 4.15368 3.80165 3.82534 3.75479C3.49701 3.70793 3.16263 3.72682 2.84166 3.81037C2.5207 3.89393 2.21955 4.04047 1.95574 4.24147C1.69192 4.44248 1.47071 4.69394 1.30497 4.98122C1.13923 5.2685 1.03227 5.58587 0.990315 5.91487C0.948356 6.24387 0.972236 6.57792 1.06057 6.89761C1.14889 7.21729 1.29991 7.51622 1.50483 7.77701C1.70975 8.03779 1.96447 8.25523 2.25419 8.41667L2.62419 8.63C2.45762 9.5363 2.45762 10.4654 2.62419 11.3717L2.25419 11.585C1.68102 11.9175 1.26293 12.4635 1.09144 13.1035C0.919951 13.7436 1.00904 14.4255 1.33919 15ZM10 6.66667C10.8841 6.66667 11.7319 7.01786 12.3571 7.64298C12.9822 8.2681 13.3334 9.11594 13.3334 10C13.3334 10.8841 12.9822 11.7319 12.3571 12.357C11.7319 12.9821 10.8841 13.3333 10 13.3333C9.11597 13.3333 8.26813 12.9821 7.64301 12.357C7.01788 11.7319 6.6667 10.8841 6.6667 10C6.6667 9.11594 7.01788 8.2681 7.64301 7.64298C8.26813 7.01786 9.11597 6.66667 10 6.66667Z" fill="currentColor"/>
</svg>
