<svg width="16" height="16" viewBox="0 0 16 16" fill="currentColor" xmlns="http://www.w3.org/2000/svg">
<circle cx="5.84074" cy="3.36808" r="3.36808" fill="currentColor"/>
<ellipse cx="5.89415" cy="12.6319" rx="5.89415" ry="3.36808" fill="currentColor"/>
<path d="M15.7029 12.0853C15.7029 13.4804 13.9889 14.6113 11.8962 14.6113C12.5128 13.9374 12.9367 13.0915 12.9367 12.0864C12.9367 11.0802 12.5118 10.2335 11.8941 9.55924C13.9868 9.55924 15.7029 10.6902 15.7029 12.0853Z" fill="currentColor"/>
<path d="M13.1768 2.82327C13.1768 4.21838 12.0459 5.34934 10.6508 5.34934C10.3465 5.34934 10.0549 5.29556 9.78479 5.197C10.1831 4.49636 10.4106 3.68591 10.4106 2.82233C10.4106 1.95939 10.1835 1.14951 9.78567 0.449224C10.0555 0.350866 10.3469 0.297211 10.6508 0.297211C12.0459 0.297211 13.1768 1.42817 13.1768 2.82327Z" fill="currentColor"/>
</svg>
